<!DOCTYPE svg PUBLIC "-//W3C//DTD SVG 1.1//EN" "http://www.w3.org/Graphics/SVG/1.1/DTD/svg11.dtd">

<!-- Uploaded to: SVG Repo, www.svgrepo.com, Transformed by: SVG Repo Mixer Tools -->
<svg fill="currentColor" version="1.1" id="Capa_1" xmlns="http://www.w3.org/2000/svg" xmlns:xlink="http://www.w3.org/1999/xlink" width="64px" height="64px" viewBox="-85.07 -85.07 737.26 737.26" xml:space="preserve" stroke="currentColor" stroke-width="56.712300000000006" transform="rotate(0)">

<g id="SVGRepo_bgCarrier" stroke-width="0" transform="translate(0,0), scale(1)"/>

<g id="SVGRepo_tracerCarrier" stroke-linecap="round" stroke-linejoin="round" stroke="#CCCCCC" stroke-width="18.147936"/>

<g id="SVGRepo_iconCarrier"> <g> <g> <path d="M0,567.119h567.123V0.004H0V567.119z M56.818,283.477l43.556-43.568c5.404-5.404,11.812-8.109,19.217-8.109 c7.399,0,13.807,2.705,19.217,8.109l90.092,90.105l199.408-199.409c5.404-5.404,11.811-8.121,19.217-8.121 c7.398,0,13.807,2.717,19.217,8.121l43.557,43.55c5.402,5.422,8.113,11.824,8.113,19.217c0,7.405-2.711,13.813-8.113,19.217 L248.117,474.764c-5.41,5.422-11.818,8.121-19.217,8.121c-7.405,0-13.813-2.705-19.217-8.121L56.818,321.91 c-5.41-5.404-8.115-11.812-8.115-19.217C48.703,295.287,51.402,288.881,56.818,283.477z"/> </g> </g> </g>

</svg>