<svg xmlns="http://www.w3.org/2000/svg" height="40" viewBox="0 -960 960 960" width="40" fill="currentFill"><path d="M479.865-438.923q-10.736 0-17.864-7.224t-7.128-17.904v-335.795q0-10.679 7.262-17.903 7.263-7.224 18-7.224 10.736 0 17.864 7.224t7.128 17.903v335.795q0 10.68-7.262 17.904-7.263 7.224-18 7.224Zm.157 299.998q-70.791 0-132.637-26.897-61.846-26.897-107.846-72.769-45.999-45.871-72.768-107.831-26.77-61.959-26.77-132.473 0-68.532 27.065-130.562 27.064-62.03 76.32-110.722 7.615-7.436 18.5-7.448 10.884-.013 18.387 7.489 7.163 7.164 6.165 17.49-.998 10.325-8.643 18.058-42.487 41-65.013 94.054-22.526 53.054-22.526 111.613 0 121.071 84.329 205.407 84.328 84.337 205.388 84.337t205.415-84.337q84.356-84.336 84.356-205.407 0-58.693-22.493-111.865t-64.585-94.623q-7.594-7.412-8.438-17.815-.844-10.403 6.726-17.223 7.791-7.986 18.661-7.243 10.871.744 19.153 8.59 48.605 48.57 74.918 110.334Q819.999-547.004 819.999-479q0 70.619-26.77 132.578-26.769 61.96-72.768 107.831-46 45.872-107.824 72.769-61.824 26.897-132.615 26.897Z"/></svg>